<mxfile host="app.diagrams.net" agent="Mozilla/5.0 (Macintosh; Intel Mac OS X 10_15_7) AppleWebKit/537.36 (KHTML, like Gecko) Chrome/129.0.0.0 Safari/537.36 Edg/129.0.0.0" version="24.7.17">
  <diagram id="C5RBs43oDa-KdzZeNtuy" name="Page-1">
    <mxGraphModel grid="1" page="1" gridSize="10" guides="1" tooltips="1" connect="1" arrows="1" fold="1" pageScale="1" pageWidth="827" pageHeight="1169" math="0" shadow="0">
      <root>
        <mxCell id="WIyWlLk6GJQsqaUBKTNV-0" />
        <mxCell id="WIyWlLk6GJQsqaUBKTNV-1" parent="WIyWlLk6GJQsqaUBKTNV-0" />
        <mxCell id="qFU8ii4fWrEPRFGAN8I9-0" value="Start" style="strokeWidth=2;html=1;shape=mxgraph.flowchart.start_1;whiteSpace=wrap;" vertex="1" parent="WIyWlLk6GJQsqaUBKTNV-1">
          <mxGeometry x="350" y="30" width="100" height="60" as="geometry" />
        </mxCell>
        <mxCell id="qFU8ii4fWrEPRFGAN8I9-1" value="Prompt user" style="strokeWidth=2;html=1;shape=label;whiteSpace=wrap;rounded=1;absoluteArcSize=1;arcSize=14;" vertex="1" parent="WIyWlLk6GJQsqaUBKTNV-1">
          <mxGeometry x="350" y="110" width="100" height="100" as="geometry" />
        </mxCell>
        <mxCell id="qFU8ii4fWrEPRFGAN8I9-2" value="End" style="strokeWidth=2;html=1;shape=mxgraph.flowchart.terminator;whiteSpace=wrap;" vertex="1" parent="WIyWlLk6GJQsqaUBKTNV-1">
          <mxGeometry x="350" y="1090" width="100" height="60" as="geometry" />
        </mxCell>
        <mxCell id="qFU8ii4fWrEPRFGAN8I9-5" value="Print report" style="rounded=1;whiteSpace=wrap;html=1;absoluteArcSize=1;arcSize=14;strokeWidth=2;" vertex="1" parent="WIyWlLk6GJQsqaUBKTNV-1">
          <mxGeometry x="130" y="229" width="100" height="100" as="geometry" />
        </mxCell>
        <mxCell id="qFU8ii4fWrEPRFGAN8I9-8" style="edgeStyle=orthogonalEdgeStyle;rounded=0;orthogonalLoop=1;jettySize=auto;html=1;exitX=0.5;exitY=1;exitDx=0;exitDy=0;exitPerimeter=0;entryX=0.5;entryY=0;entryDx=0;entryDy=0;entryPerimeter=0;" edge="1" parent="WIyWlLk6GJQsqaUBKTNV-1" source="qFU8ii4fWrEPRFGAN8I9-0" target="qFU8ii4fWrEPRFGAN8I9-1">
          <mxGeometry relative="1" as="geometry" />
        </mxCell>
        <mxCell id="qFU8ii4fWrEPRFGAN8I9-9" value="Set coffee type" style="rounded=1;whiteSpace=wrap;html=1;absoluteArcSize=1;arcSize=14;strokeWidth=2;shape=label;" vertex="1" parent="WIyWlLk6GJQsqaUBKTNV-1">
          <mxGeometry x="350" y="350" width="100" height="100" as="geometry" />
        </mxCell>
        <mxCell id="qFU8ii4fWrEPRFGAN8I9-19" style="edgeStyle=orthogonalEdgeStyle;rounded=0;orthogonalLoop=1;jettySize=auto;html=1;exitX=0;exitY=0.5;exitDx=0;exitDy=0;exitPerimeter=0;entryX=1;entryY=0.5;entryDx=0;entryDy=0;" edge="1" parent="WIyWlLk6GJQsqaUBKTNV-1" source="qFU8ii4fWrEPRFGAN8I9-12" target="qFU8ii4fWrEPRFGAN8I9-18">
          <mxGeometry relative="1" as="geometry" />
        </mxCell>
        <mxCell id="qFU8ii4fWrEPRFGAN8I9-21" value="insufficient" style="edgeLabel;html=1;align=center;verticalAlign=middle;resizable=0;points=[];" connectable="0" vertex="1" parent="qFU8ii4fWrEPRFGAN8I9-19">
          <mxGeometry x="-0.119" y="-2" relative="1" as="geometry">
            <mxPoint as="offset" />
          </mxGeometry>
        </mxCell>
        <mxCell id="qFU8ii4fWrEPRFGAN8I9-12" value="Check resources" style="rounded=1;whiteSpace=wrap;html=1;absoluteArcSize=1;arcSize=14;strokeWidth=2;shape=mxgraph.flowchart.decision;" vertex="1" parent="WIyWlLk6GJQsqaUBKTNV-1">
          <mxGeometry x="345" y="472" width="110" height="110" as="geometry" />
        </mxCell>
        <mxCell id="qFU8ii4fWrEPRFGAN8I9-13" style="edgeStyle=orthogonalEdgeStyle;rounded=0;orthogonalLoop=1;jettySize=auto;html=1;exitX=0.5;exitY=1;exitDx=0;exitDy=0;entryX=0.5;entryY=0;entryDx=0;entryDy=0;entryPerimeter=0;" edge="1" parent="WIyWlLk6GJQsqaUBKTNV-1" source="qFU8ii4fWrEPRFGAN8I9-9" target="qFU8ii4fWrEPRFGAN8I9-12">
          <mxGeometry relative="1" as="geometry" />
        </mxCell>
        <mxCell id="qFU8ii4fWrEPRFGAN8I9-18" value="Print error" style="rounded=1;whiteSpace=wrap;html=1;absoluteArcSize=1;arcSize=14;strokeWidth=2;shape=label;" vertex="1" parent="WIyWlLk6GJQsqaUBKTNV-1">
          <mxGeometry x="170" y="477" width="100" height="100" as="geometry" />
        </mxCell>
        <mxCell id="qFU8ii4fWrEPRFGAN8I9-22" value="Get coins" style="rounded=1;whiteSpace=wrap;html=1;absoluteArcSize=1;arcSize=14;strokeWidth=2;shape=label;" vertex="1" parent="WIyWlLk6GJQsqaUBKTNV-1">
          <mxGeometry x="345" y="614" width="110" height="110" as="geometry" />
        </mxCell>
        <mxCell id="qFU8ii4fWrEPRFGAN8I9-23" style="edgeStyle=orthogonalEdgeStyle;rounded=0;orthogonalLoop=1;jettySize=auto;html=1;exitX=0.5;exitY=1;exitDx=0;exitDy=0;exitPerimeter=0;entryX=0.5;entryY=0;entryDx=0;entryDy=0;entryPerimeter=0;" edge="1" parent="WIyWlLk6GJQsqaUBKTNV-1" source="qFU8ii4fWrEPRFGAN8I9-12" target="qFU8ii4fWrEPRFGAN8I9-22">
          <mxGeometry relative="1" as="geometry" />
        </mxCell>
        <mxCell id="qFU8ii4fWrEPRFGAN8I9-24" value="sufficient" style="edgeLabel;html=1;align=center;verticalAlign=middle;resizable=0;points=[];" connectable="0" vertex="1" parent="qFU8ii4fWrEPRFGAN8I9-23">
          <mxGeometry x="-0.2444" y="1" relative="1" as="geometry">
            <mxPoint as="offset" />
          </mxGeometry>
        </mxCell>
        <mxCell id="qFU8ii4fWrEPRFGAN8I9-28" style="edgeStyle=orthogonalEdgeStyle;rounded=0;orthogonalLoop=1;jettySize=auto;html=1;exitX=0;exitY=0.5;exitDx=0;exitDy=0;exitPerimeter=0;entryX=1;entryY=0.5;entryDx=0;entryDy=0;" edge="1" parent="WIyWlLk6GJQsqaUBKTNV-1" source="qFU8ii4fWrEPRFGAN8I9-25" target="qFU8ii4fWrEPRFGAN8I9-27">
          <mxGeometry relative="1" as="geometry" />
        </mxCell>
        <mxCell id="qFU8ii4fWrEPRFGAN8I9-30" value="insufficient" style="edgeLabel;html=1;align=center;verticalAlign=middle;resizable=0;points=[];" connectable="0" vertex="1" parent="qFU8ii4fWrEPRFGAN8I9-28">
          <mxGeometry x="-0.1368" relative="1" as="geometry">
            <mxPoint as="offset" />
          </mxGeometry>
        </mxCell>
        <mxCell id="qFU8ii4fWrEPRFGAN8I9-47" style="edgeStyle=orthogonalEdgeStyle;rounded=0;orthogonalLoop=1;jettySize=auto;html=1;exitX=0.5;exitY=1;exitDx=0;exitDy=0;exitPerimeter=0;entryX=0.5;entryY=0;entryDx=0;entryDy=0;" edge="1" parent="WIyWlLk6GJQsqaUBKTNV-1" source="qFU8ii4fWrEPRFGAN8I9-25" target="qFU8ii4fWrEPRFGAN8I9-46">
          <mxGeometry relative="1" as="geometry" />
        </mxCell>
        <mxCell id="qFU8ii4fWrEPRFGAN8I9-53" value="sufficient" style="edgeLabel;html=1;align=center;verticalAlign=middle;resizable=0;points=[];" connectable="0" vertex="1" parent="qFU8ii4fWrEPRFGAN8I9-47">
          <mxGeometry x="-0.4615" y="2" relative="1" as="geometry">
            <mxPoint as="offset" />
          </mxGeometry>
        </mxCell>
        <mxCell id="qFU8ii4fWrEPRFGAN8I9-25" value="Check coins" style="rounded=1;whiteSpace=wrap;html=1;absoluteArcSize=1;arcSize=14;strokeWidth=2;shape=mxgraph.flowchart.decision;" vertex="1" parent="WIyWlLk6GJQsqaUBKTNV-1">
          <mxGeometry x="345" y="742" width="110" height="110" as="geometry" />
        </mxCell>
        <mxCell id="qFU8ii4fWrEPRFGAN8I9-26" style="edgeStyle=orthogonalEdgeStyle;rounded=0;orthogonalLoop=1;jettySize=auto;html=1;exitX=0.5;exitY=1;exitDx=0;exitDy=0;entryX=0.5;entryY=0;entryDx=0;entryDy=0;entryPerimeter=0;" edge="1" parent="WIyWlLk6GJQsqaUBKTNV-1" source="qFU8ii4fWrEPRFGAN8I9-22" target="qFU8ii4fWrEPRFGAN8I9-25">
          <mxGeometry relative="1" as="geometry" />
        </mxCell>
        <mxCell id="qFU8ii4fWrEPRFGAN8I9-27" value="Refund order" style="rounded=1;whiteSpace=wrap;html=1;absoluteArcSize=1;arcSize=14;strokeWidth=2;shape=label;" vertex="1" parent="WIyWlLk6GJQsqaUBKTNV-1">
          <mxGeometry x="150" y="747" width="100" height="100" as="geometry" />
        </mxCell>
        <mxCell id="qFU8ii4fWrEPRFGAN8I9-34" style="edgeStyle=orthogonalEdgeStyle;rounded=0;orthogonalLoop=1;jettySize=auto;html=1;exitX=0.5;exitY=1;exitDx=0;exitDy=0;exitPerimeter=0;entryX=0.5;entryY=0;entryDx=0;entryDy=0;" edge="1" parent="WIyWlLk6GJQsqaUBKTNV-1" source="qFU8ii4fWrEPRFGAN8I9-32" target="qFU8ii4fWrEPRFGAN8I9-9">
          <mxGeometry relative="1" as="geometry" />
        </mxCell>
        <mxCell id="qFU8ii4fWrEPRFGAN8I9-45" value="espresso/latte/cappuccino" style="edgeLabel;html=1;align=center;verticalAlign=middle;resizable=0;points=[];" connectable="0" vertex="1" parent="qFU8ii4fWrEPRFGAN8I9-34">
          <mxGeometry x="-0.4652" y="-1" relative="1" as="geometry">
            <mxPoint as="offset" />
          </mxGeometry>
        </mxCell>
        <mxCell id="qFU8ii4fWrEPRFGAN8I9-43" style="edgeStyle=orthogonalEdgeStyle;rounded=0;orthogonalLoop=1;jettySize=auto;html=1;exitX=0;exitY=0.5;exitDx=0;exitDy=0;exitPerimeter=0;entryX=1;entryY=0.5;entryDx=0;entryDy=0;" edge="1" parent="WIyWlLk6GJQsqaUBKTNV-1" source="qFU8ii4fWrEPRFGAN8I9-32" target="qFU8ii4fWrEPRFGAN8I9-5">
          <mxGeometry relative="1" as="geometry" />
        </mxCell>
        <mxCell id="qFU8ii4fWrEPRFGAN8I9-44" value="report" style="edgeLabel;html=1;align=center;verticalAlign=middle;resizable=0;points=[];" connectable="0" vertex="1" parent="qFU8ii4fWrEPRFGAN8I9-43">
          <mxGeometry x="-0.5" y="-1" relative="1" as="geometry">
            <mxPoint as="offset" />
          </mxGeometry>
        </mxCell>
        <mxCell id="qFU8ii4fWrEPRFGAN8I9-32" value="Process command" style="strokeWidth=2;html=1;shape=mxgraph.flowchart.decision;whiteSpace=wrap;" vertex="1" parent="WIyWlLk6GJQsqaUBKTNV-1">
          <mxGeometry x="350" y="229" width="100" height="100" as="geometry" />
        </mxCell>
        <mxCell id="qFU8ii4fWrEPRFGAN8I9-33" style="edgeStyle=orthogonalEdgeStyle;rounded=0;orthogonalLoop=1;jettySize=auto;html=1;exitX=0.5;exitY=1;exitDx=0;exitDy=0;entryX=0.5;entryY=0;entryDx=0;entryDy=0;entryPerimeter=0;" edge="1" parent="WIyWlLk6GJQsqaUBKTNV-1" source="qFU8ii4fWrEPRFGAN8I9-1" target="qFU8ii4fWrEPRFGAN8I9-32">
          <mxGeometry relative="1" as="geometry" />
        </mxCell>
        <mxCell id="qFU8ii4fWrEPRFGAN8I9-35" style="edgeStyle=orthogonalEdgeStyle;rounded=0;orthogonalLoop=1;jettySize=auto;html=1;exitX=1;exitY=0.5;exitDx=0;exitDy=0;exitPerimeter=0;entryX=1;entryY=0.5;entryDx=0;entryDy=0;entryPerimeter=0;" edge="1" parent="WIyWlLk6GJQsqaUBKTNV-1" source="qFU8ii4fWrEPRFGAN8I9-32" target="qFU8ii4fWrEPRFGAN8I9-2">
          <mxGeometry relative="1" as="geometry">
            <Array as="points">
              <mxPoint x="450" y="280" />
              <mxPoint x="800" y="280" />
              <mxPoint x="800" y="1120" />
            </Array>
          </mxGeometry>
        </mxCell>
        <mxCell id="qFU8ii4fWrEPRFGAN8I9-36" value="off" style="edgeLabel;html=1;align=center;verticalAlign=middle;resizable=0;points=[];" connectable="0" vertex="1" parent="qFU8ii4fWrEPRFGAN8I9-35">
          <mxGeometry x="-0.9747" relative="1" as="geometry">
            <mxPoint as="offset" />
          </mxGeometry>
        </mxCell>
        <mxCell id="qFU8ii4fWrEPRFGAN8I9-39" style="edgeStyle=orthogonalEdgeStyle;rounded=0;orthogonalLoop=1;jettySize=auto;html=1;exitX=0;exitY=0.5;exitDx=0;exitDy=0;entryX=0;entryY=0.5;entryDx=0;entryDy=0;entryPerimeter=0;" edge="1" parent="WIyWlLk6GJQsqaUBKTNV-1" source="qFU8ii4fWrEPRFGAN8I9-18" target="qFU8ii4fWrEPRFGAN8I9-0">
          <mxGeometry relative="1" as="geometry">
            <Array as="points">
              <mxPoint x="30" y="527" />
              <mxPoint x="30" y="60" />
            </Array>
          </mxGeometry>
        </mxCell>
        <mxCell id="qFU8ii4fWrEPRFGAN8I9-41" style="edgeStyle=orthogonalEdgeStyle;rounded=0;orthogonalLoop=1;jettySize=auto;html=1;exitX=0;exitY=0.5;exitDx=0;exitDy=0;entryX=0.145;entryY=0.145;entryDx=0;entryDy=0;entryPerimeter=0;" edge="1" parent="WIyWlLk6GJQsqaUBKTNV-1" source="qFU8ii4fWrEPRFGAN8I9-27" target="qFU8ii4fWrEPRFGAN8I9-0">
          <mxGeometry relative="1" as="geometry">
            <Array as="points">
              <mxPoint x="150" y="800" />
              <mxPoint x="20" y="800" />
              <mxPoint x="20" y="39" />
            </Array>
          </mxGeometry>
        </mxCell>
        <mxCell id="qFU8ii4fWrEPRFGAN8I9-42" style="edgeStyle=orthogonalEdgeStyle;rounded=0;orthogonalLoop=1;jettySize=auto;html=1;exitX=0.5;exitY=0;exitDx=0;exitDy=0;entryX=0.145;entryY=0.855;entryDx=0;entryDy=0;entryPerimeter=0;" edge="1" parent="WIyWlLk6GJQsqaUBKTNV-1" source="qFU8ii4fWrEPRFGAN8I9-5" target="qFU8ii4fWrEPRFGAN8I9-0">
          <mxGeometry relative="1" as="geometry">
            <Array as="points">
              <mxPoint x="180" y="81" />
            </Array>
          </mxGeometry>
        </mxCell>
        <mxCell id="qFU8ii4fWrEPRFGAN8I9-49" style="edgeStyle=orthogonalEdgeStyle;rounded=0;orthogonalLoop=1;jettySize=auto;html=1;exitX=0.5;exitY=1;exitDx=0;exitDy=0;entryX=0.5;entryY=0;entryDx=0;entryDy=0;" edge="1" parent="WIyWlLk6GJQsqaUBKTNV-1" source="qFU8ii4fWrEPRFGAN8I9-46" target="qFU8ii4fWrEPRFGAN8I9-48">
          <mxGeometry relative="1" as="geometry" />
        </mxCell>
        <mxCell id="qFU8ii4fWrEPRFGAN8I9-46" value="Make coffee" style="rounded=1;whiteSpace=wrap;html=1;absoluteArcSize=1;arcSize=14;strokeWidth=2;shape=label;" vertex="1" parent="WIyWlLk6GJQsqaUBKTNV-1">
          <mxGeometry x="360" y="878" width="80" height="82" as="geometry" />
        </mxCell>
        <mxCell id="qFU8ii4fWrEPRFGAN8I9-48" value="Give coffee + change" style="rounded=1;whiteSpace=wrap;html=1;absoluteArcSize=1;arcSize=14;strokeWidth=2;shape=label;" vertex="1" parent="WIyWlLk6GJQsqaUBKTNV-1">
          <mxGeometry x="360" y="980" width="80" height="80" as="geometry" />
        </mxCell>
        <mxCell id="qFU8ii4fWrEPRFGAN8I9-52" style="edgeStyle=orthogonalEdgeStyle;rounded=0;orthogonalLoop=1;jettySize=auto;html=1;exitX=0;exitY=0.5;exitDx=0;exitDy=0;entryX=0.5;entryY=0;entryDx=0;entryDy=0;entryPerimeter=0;" edge="1" parent="WIyWlLk6GJQsqaUBKTNV-1" source="qFU8ii4fWrEPRFGAN8I9-48" target="qFU8ii4fWrEPRFGAN8I9-0">
          <mxGeometry relative="1" as="geometry">
            <Array as="points">
              <mxPoint x="10" y="1020" />
              <mxPoint x="10" y="10" />
              <mxPoint x="400" y="10" />
            </Array>
          </mxGeometry>
        </mxCell>
      </root>
    </mxGraphModel>
  </diagram>
</mxfile>
